<svg xmlns="http://www.w3.org/2000/svg" width="400" height="40"><path d="M400 3.815c0 .539-.11 1.045-.33 1.518a3.799 3.799 0 01-.881 1.222 4.345 4.345 0 01-1.328.818 4.497 4.497 0 01-1.636.296 4.728 4.728 0 01-1.668-.286 4.193 4.193 0 01-1.307-.798 3.705 3.705 0 01-1.158-2.75c0-.54.106-1.042.319-1.509.22-.466.517-.87.892-1.212a4.133 4.133 0 011.318-.818A4.527 4.527 0 01395.867 0c.602 0 1.155.095 1.658.286.51.19.945.457 1.306.798.369.335.655.736.86 1.203.206.467.309.976.309 1.528zm-.956.059c0-.467-.082-.89-.245-1.272a2.846 2.846 0 00-1.668-1.607 3.605 3.605 0 00-1.264-.216c-.488 0-.931.079-1.328.236a3.09 3.09 0 00-1.009.65 2.93 2.93 0 00-.659.967c-.148.361-.223.75-.223 1.163 0 .46.078.88.234 1.262.163.381.386.71.67.986.283.269.619.48 1.009.63.39.145.81.217 1.264.217.488 0 .931-.079 1.328-.236a3.155 3.155 0 001.009-.65 2.978 2.978 0 00.882-2.13zm-1.254 1.804a.164.164 0 01-.021.079c-.007.02-.032.036-.074.049a2.745 2.745 0 01-.181.02c-.078.006-.184.01-.319.01-.12 0-.22-.004-.297-.01a1.128 1.128 0 01-.18-.03.408.408 0 01-.107-.069.454.454 0 01-.053-.128l-.223-.68c-.085-.243-.188-.41-.308-.503-.114-.098-.287-.148-.521-.148h-.287v1.38c0 .073-.032.122-.095.148-.057.026-.195.04-.415.04-.22 0-.364-.014-.435-.04-.071-.026-.107-.075-.107-.148V2.11c0-.144.04-.256.117-.335.078-.085.195-.128.35-.128h1.223c.283 0 .53.023.743.07.22.045.404.117.553.216a.962.962 0 01.35.375c.078.144.117.318.117.522 0 .316-.092.562-.276.74-.184.17-.432.292-.744.364.17.053.33.141.478.266.15.125.277.312.383.562l.255.631c.05.151.074.246.074.286zm-1.317-2.73a.668.668 0 00-.032-.208.332.332 0 00-.128-.167.542.542 0 00-.233-.118c-.1-.027-.223-.04-.372-.04h-.489V3.52h.468c.297 0 .502-.052.616-.158a.538.538 0 00.17-.414zM399.983 40l-37.241-.032V0h7.505v33.004l29.736.032zm-97.458-.032h-11.1L279.38 28.732H263.17v-6.905h20.182c2.733 0 5.066-.565 7-1.697 2.144-1.326 3.217-3.218 3.217-5.676 0-4.994-3.406-7.49-10.217-7.49h-24.596v33.004h-7.505V0h30.902c5.55 0 10.028 1.112 13.434 3.336 3.91 2.535 5.865 6.261 5.865 11.177 0 3.394-1.135 6.28-3.406 8.66-2.06 2.263-4.919 3.843-8.577 4.74zm58.968.028h-9.643l-7.247-11.214h-20.42l4.538-6.9h11.407l-7.5-11.56-19.41 29.674h-9.643l23.382-36.172a5.9 5.9 0 011.008-1.323c.42-.46.882-.862 1.386-1.207a6.765 6.765 0 011.64-.92 4.975 4.975 0 011.827-.345c1.218 0 2.332.383 3.34 1.15a8.725 8.725 0 012.52 2.645zm-114.445-.028h-27.371c-6.265 0-11.457-1.931-15.578-5.793-4.078-3.824-6.117-8.7-6.117-14.63 0-5.852 2.018-10.572 6.054-14.161C208.156 1.794 213.37 0 219.676 0h24.345v6.964h-24.344c-4.12 0-7.526 1.229-10.217 3.686-2.649 2.458-3.973 5.618-3.973 9.48 0 3.823 1.324 6.925 3.973 9.305 2.69 2.38 6.096 3.57 10.217 3.57h19.866v-8.72h-20.434v-6.378h27.939zm-52.703-16.795H169.75V16.21h24.596zm1.955 16.795h-37.21V0h37.21v6.964h-29.704v26.04H196.3zM154.887 6.964h-16.965v33.004h-7.442V6.964h-17.028V0h41.435zm-45.914 29.18c0 2.55-.937 3.824-2.81 3.824-1.373 0-2.913-.792-4.619-2.375L74.201 12.106v27.862h-7.366V3.418c0-.927.27-1.719.811-2.375C68.187.348 68.957 0 69.956 0c1.373 0 2.788.676 4.245 2.027l27.343 25.43V0h7.429zm-49.495 3.824h-7.505V0h7.505zm-15.772 0H36.2v-16.62H10.91v-6.963H36.2V0h7.505zm-36.201 0H0V0h7.505z" fill="#aad400"/></svg>